G04 #@! TF.GenerationSoftware,KiCad,Pcbnew,9.0.2*
G04 #@! TF.CreationDate,2025-06-11T20:44:21-07:00*
G04 #@! TF.ProjectId,solder,736f6c64-6572-42e6-9b69-6361645f7063,rev?*
G04 #@! TF.SameCoordinates,Original*
G04 #@! TF.FileFunction,Copper,L1,Top*
G04 #@! TF.FilePolarity,Positive*
%FSLAX46Y46*%
G04 Gerber Fmt 4.6, Leading zero omitted, Abs format (unit mm)*
G04 Created by KiCad (PCBNEW 9.0.2) date 2025-06-11 20:44:21*
%MOMM*%
%LPD*%
G01*
G04 APERTURE LIST*
G04 #@! TA.AperFunction,ComponentPad*
%ADD10C,1.600000*%
G04 #@! TD*
G04 #@! TA.AperFunction,ComponentPad*
%ADD11R,1.800000X1.800000*%
G04 #@! TD*
G04 #@! TA.AperFunction,ComponentPad*
%ADD12C,1.800000*%
G04 #@! TD*
G04 #@! TA.AperFunction,SMDPad,CuDef*
%ADD13R,1.270000X5.080000*%
G04 #@! TD*
G04 #@! TA.AperFunction,SMDPad,CuDef*
%ADD14C,17.800000*%
G04 #@! TD*
G04 #@! TA.AperFunction,Conductor*
%ADD15C,0.200000*%
G04 #@! TD*
G04 APERTURE END LIST*
D10*
G04 #@! TO.P,R1,1*
G04 #@! TO.N,Net-(BT1--)*
X59725000Y-63500000D03*
G04 #@! TO.P,R1,2*
G04 #@! TO.N,Net-(D1-K)*
X52105000Y-63500000D03*
G04 #@! TD*
D11*
G04 #@! TO.P,D1,1,K*
G04 #@! TO.N,Net-(D1-K)*
X42000000Y-54775000D03*
D12*
G04 #@! TO.P,D1,2,A*
G04 #@! TO.N,Net-(BT1-+)*
X42000000Y-52235000D03*
G04 #@! TD*
D11*
G04 #@! TO.P,D2,1,K*
G04 #@! TO.N,Net-(D2-K)*
X79000000Y-54775000D03*
D12*
G04 #@! TO.P,D2,2,A*
G04 #@! TO.N,Net-(BT1-+)*
X79000000Y-52235000D03*
G04 #@! TD*
D13*
G04 #@! TO.P,BT1,1,+*
G04 #@! TO.N,Net-(BT1-+)*
X49030000Y-43818075D03*
X71000000Y-43818075D03*
D14*
G04 #@! TO.P,BT1,2,-*
G04 #@! TO.N,Net-(BT1--)*
X60015000Y-43818075D03*
G04 #@! TD*
D10*
G04 #@! TO.P,R2,1*
G04 #@! TO.N,Net-(D2-K)*
X70225000Y-63500000D03*
G04 #@! TO.P,R2,2*
G04 #@! TO.N,Net-(BT1--)*
X62605000Y-63500000D03*
G04 #@! TD*
D15*
G04 #@! TO.N,Net-(BT1--)*
X62605000Y-46408075D02*
X60015000Y-43818075D01*
X59725000Y-63500000D02*
X62605000Y-63500000D01*
X59725000Y-63500000D02*
X59725000Y-44108075D01*
X59725000Y-44108075D02*
X60015000Y-43818075D01*
X62605000Y-63500000D02*
X62605000Y-46408075D01*
G04 #@! TO.N,Net-(BT1-+)*
X79000000Y-52235000D02*
X71000000Y-44235000D01*
X71000000Y-44235000D02*
X71000000Y-43818075D01*
X49030000Y-40470000D02*
X55000000Y-34500000D01*
X71000000Y-41000000D02*
X71000000Y-43818075D01*
X49030000Y-43818075D02*
X49030000Y-40470000D01*
X55000000Y-34500000D02*
X64500000Y-34500000D01*
X64500000Y-34500000D02*
X71000000Y-41000000D01*
X42000000Y-52235000D02*
X42000000Y-50848075D01*
X42000000Y-50848075D02*
X49030000Y-43818075D01*
G04 #@! TO.N,Net-(D1-K)*
X43380000Y-54775000D02*
X52105000Y-63500000D01*
X42000000Y-54775000D02*
X43380000Y-54775000D01*
G04 #@! TO.N,Net-(D2-K)*
X78950000Y-54775000D02*
X79000000Y-54775000D01*
X70225000Y-63500000D02*
X78950000Y-54775000D01*
G04 #@! TD*
M02*
